{"title":"Breaking Bad S05E15 480p HDTV x264 AAC E-Subs [GWC].mp4","uid":8953029,"size":120884396,"categoryP":"video","categoryS":"tv_shows","magnet":"?xt=urn:btih:1109647b43d42046a3ec1c3ae0599c865c74dfba&amp;dn=Breaking+Bad+S05E15+480p+HDTV+x264+AAC+E-Subs+%5BGWC%5D.mp4&amp;tr=udp%3A%2F%2Ftracker.openbittorrent.com%3A80&amp;tr=udp%3A%2F%2Fopen.demonii.com%3A1337&amp;tr=udp%3A%2F%2Ftracker.coppersurfer.tk%3A6969&amp;tr=udp%3A%2F%2Fexodus.desync.com%3A6969","seeders":2,"leechers":0,"uploader":"canc232","files":1,"time":1379932215,"description":"Breaking Bad S05E15 480p HDTV x264 AAC E-Subs [GWC]\n\nSCREENS :\n &lt;a href=&quot;\nhttp://s22.postimg.org/hrr3wj5hd/brb_D_1.jpg&quot; rel=&quot;nofollow&quot; target=&quot;_NEW&quot;&gt;\nhttp://s22.postimg.org/hrr3wj5hd/brb_D_1.jpg&lt;/a&gt;\n &lt;a href=&quot;\nhttp://s22.postimg.org/88hf32hz5/brb_D_2.jpg&quot; rel=&quot;nofollow&quot; target=&quot;_NEW&quot;&gt;\nhttp://s22.postimg.org/88hf32hz5/brb_D_2.jpg&lt;/a&gt;\n &lt;a href=&quot;\nhttp://s22.postimg.org/6hye1l0g1/brb_D_3.jpg&quot; rel=&quot;nofollow&quot; target=&quot;_NEW&quot;&gt;\nhttp://s22.postimg.org/6hye1l0g1/brb_D_3.jpg&lt;/a&gt;\n\n\nMEDIA INFO :\n\nGeneral \nFormat : MPEG-4 \nFile size : 115 MiB \nDuration : 53mn 5s \nOverall bit rate mode : Variable \nOverall bit rate : 304 Kbps \n\nVideo \nID : 1 \nFormat : AVC \nFormat profile : &lt;a class=&quot;__cf_email__&quot; href=&quot;/cdn-cgi/l/email-protection&quot; data-cfemail=&quot;d39bbab4bb939fe0fde3&quot;&gt;[email&amp;#160;protected]&lt;/a&gt;&lt;script cf-hash='f9e31' type=&quot;text/javascript&quot;&gt;\n/* &lt;![CDATA[ */!function(){try{var t=&quot;currentScript&quot;in document?document.currentScript:function(){for(var t=document.getElementsByTagName(&quot;script&quot;),e=t.length;e--;)if(t[e].getAttribute(&quot;cf-hash&quot;))return t[e]}();if(t&amp;&amp;t.previousSibling){var e,r,n,i,c=t.previousSibling,a=c.getAttribute(&quot;data-cfemail&quot;);if(a){for(e=&quot;&quot;,r=parseInt(a.substr(0,2),16),n=2;a.length-n;n+=2)i=parseInt(a.substr(n,2),16)^r,e+=String.fromCharCode(i);e=document.createTextNode(e),c.parentNode.replaceChild(e,c)}}}catch(u){}}();/* ]]&gt; */&lt;/script&gt; \nFormat settings, CABAC : Yes \nFormat settings, ReFrames : 4 frames \nDuration : 53mn 5s \nBit rate : 230 Kbps \nMaximum bit rate : 1 518 Kbps \nWidth : 720 pixels \nHeight : 404 pixels \nDisplay aspect ratio : 16:9 \nFrame rate mode : Variable \nFrame rate : 23.976 fps \nStream size : 87.2 MiB\nTitle : Breaking Bad S05E15 480p HDTV x264 AAC E-Subs [GWC] \nWriting library : x264 core \n\nAudio \nID : 2 \nFormat : AAC \nFormat profile : LC \nCodec ID : 40 \nDuration : 53mn 5s \nBit rate mode : Variable \nChannel(s) : 2 channels \nSampling rate : 44.1 KHz \nCompression mode : Lossy \nStream size : 24.2 MiB \nLanguage : English \n\nText \nID : 3 \nFormat : Timed Text \nMuxing mode : sbtl \nCodec ID : tx3g \nDuration : 53mn 3s \nTitle : English Subtitle by n17t01 \nLanguage : English","torrent":{"xt":"urn:btih:1109647b43d42046a3ec1c3ae0599c865c74dfba","amp;dn":"Breaking+Bad+S05E15+480p+HDTV+x264+AAC+E-Subs+%5BGWC%5D.mp4","amp;tr":["udp%3A%2F%2Ftracker.openbittorrent.com%3A80","udp%3A%2F%2Fopen.demonii.com%3A1337","udp%3A%2F%2Ftracker.coppersurfer.tk%3A6969","udp%3A%2F%2Fexodus.desync.com%3A6969"],"infoHash":"1109647b43d42046a3ec1c3ae0599c865c74dfba","infoHashBuffer":{"type":"Buffer","data":[17,9,100,123,67,212,32,70,163,236,28,58,224,89,156,134,92,116,223,186]},"announce":[],"urlList":[]}}